<svg width="230" height="230" viewBox="0 0 230 230" fill="none" xmlns="http://www.w3.org/2000/svg">
<circle cx="115" cy="115" r="112.5" fill="white" stroke="black" stroke-width="5"/>
<circle cx="85" cy="107" r="16.5" stroke="black" stroke-width="5"/>
<path d="M113.5 147.74V155C113.5 158.038 111.038 160.5 108 160.5H62C58.9624 160.5 56.5 158.038 56.5 155V147.594C56.5 137.774 65.5152 130.429 75.1324 132.413L81.2975 133.685C84.0745 134.259 86.9401 134.249 89.7133 133.658L94.7693 132.581C104.414 130.525 113.5 137.879 113.5 147.74Z" stroke="black" stroke-width="5"/>
<path d="M88 90.537V70C88 67.7909 89.7909 66 92 66H172C174.209 66 176 67.7909 176 70V137C176 139.209 174.209 141 172 141H113.826" stroke="black" stroke-width="5"/>
<path d="M106.525 98.5251C105.158 99.892 105.158 102.108 106.525 103.475C107.892 104.842 110.108 104.842 111.475 103.475L106.525 98.5251ZM147.475 98.4749L149.95 96L145 91.0503L142.525 93.5251L147.475 98.4749ZM131.293 108.293L128.818 110.768L131.293 108.293ZM132.707 108.293L135.182 110.768L132.707 108.293ZM117.207 94.2071L114.732 96.682L117.207 94.2071ZM111.475 103.475L118.268 96.682L113.318 91.7322L106.525 98.5251L111.475 103.475ZM114.732 96.682L128.818 110.768L133.768 105.818L119.682 91.7322L114.732 96.682ZM135.182 110.768L147.475 98.4749L142.525 93.5251L130.232 105.818L135.182 110.768ZM128.818 110.768C130.575 112.525 133.425 112.525 135.182 110.768L130.232 105.818C131.209 104.842 132.791 104.842 133.768 105.818L128.818 110.768ZM118.268 96.682C117.291 97.6583 115.709 97.6583 114.732 96.682L119.682 91.7322C117.925 89.9749 115.075 89.9749 113.318 91.7322L118.268 96.682Z" fill="black"/>
<path d="M157.113 81.5563C158.77 81.5563 160.113 82.8995 160.113 84.5563L160.113 103.012C160.113 106.576 155.804 108.36 153.284 105.841L135.828 88.3848C133.309 85.8649 135.093 81.5563 138.657 81.5563L157.113 81.5563Z" fill="black"/>
<path d="M153.456 87.2131C154.008 87.2131 154.456 87.6608 154.456 88.2131V98.7339C154.456 99.1794 153.917 99.4024 153.602 99.0875L142.582 88.0666C142.267 87.7517 142.49 87.2131 142.935 87.2131H153.456Z" fill="white"/>
</svg>
