<svg width="157" height="33" viewBox="0 0 157 33" fill="none" xmlns="http://www.w3.org/2000/svg">
<path d="M15.0641 32.5709C14.9365 32.5829 14.8087 32.5506 14.7021 32.4795C14.5955 32.4083 14.5165 32.3026 14.4785 32.18L9.40337 21.8181H4.8365C4.80464 21.8136 4.77216 21.8165 4.74164 21.8267C4.71111 21.8369 4.68337 21.8541 4.66062 21.8769C4.63787 21.8997 4.62072 21.9275 4.61054 21.9581C4.60035 21.9886 4.5974 22.0212 4.60193 22.0531V32.1809C4.60507 32.233 4.59713 32.2852 4.57864 32.3341C4.56014 32.3829 4.53151 32.4273 4.49464 32.4642C4.45776 32.5011 4.41349 32.5298 4.36473 32.5483C4.31597 32.5669 4.26384 32.5748 4.21178 32.5717H0.38692C0.334897 32.5747 0.282823 32.5666 0.234123 32.5481C0.185422 32.5295 0.141193 32.5008 0.104346 32.4639C0.0674986 32.427 0.0388608 32.3827 0.0203201 32.3339C0.00177933 32.2851 -0.00625041 32.233 -0.00323694 32.1809V6.37148C-0.00637936 6.31934 0.00156925 6.26713 0.0200644 6.21829C0.0385595 6.16944 0.0671913 6.12508 0.104066 6.08814C0.140941 6.0512 0.185218 6.02252 0.233976 6.00399C0.282735 5.98547 0.334866 5.9775 0.38692 5.98065H10.6528C15.5324 5.98065 19.1235 9.22631 19.1235 13.9186C19.1613 15.5136 18.6947 17.0797 17.7903 18.3931C16.886 19.7064 15.5902 20.6996 14.0883 21.2307L19.6732 32.0626C19.7114 32.1106 19.7346 32.1689 19.7401 32.23C19.7455 32.2912 19.7329 32.3526 19.7039 32.4067C19.6749 32.4608 19.6306 32.5052 19.5767 32.5344C19.5227 32.5635 19.4614 32.5762 19.4004 32.5709H15.0641ZM14.5566 13.9186C14.5566 11.6112 12.9171 10.1254 10.4972 10.1254H4.83729C4.80551 10.1209 4.77312 10.1239 4.74266 10.134C4.71221 10.1442 4.68453 10.1613 4.66179 10.184C4.63905 10.2067 4.62188 10.2344 4.61163 10.2649C4.60138 10.2953 4.59834 10.3278 4.60273 10.3596V17.4376C4.59834 17.4694 4.60138 17.5018 4.61163 17.5323C4.62188 17.5628 4.63905 17.5905 4.66179 17.6132C4.68453 17.6359 4.71221 17.653 4.74266 17.6631C4.77312 17.6733 4.80551 17.6762 4.83729 17.6717H10.4972C12.9203 17.6725 14.5598 16.1868 14.5598 13.9186H14.5566Z" fill="#131D34"/>
<path d="M34.3113 32.5707C34.2593 32.5738 34.2071 32.5659 34.1584 32.5474C34.1096 32.5288 34.0654 32.5002 34.0285 32.4632C33.9916 32.4263 33.963 32.3819 33.9445 32.3331C33.926 32.2842 33.918 32.232 33.9212 32.1799V30.8108H33.8821C32.9845 32.1008 31.2277 33.0007 28.5732 33.0007C25.1385 33.0007 22.2495 31.2024 22.2495 27.2526C22.2495 23.147 25.1377 21.2696 29.7828 21.2696H33.6116C33.6434 21.2743 33.6759 21.2715 33.7064 21.2614C33.737 21.2513 33.7647 21.2342 33.7875 21.2115C33.8103 21.1887 33.8274 21.161 33.8376 21.1304C33.8478 21.0999 33.8508 21.0674 33.8462 21.0355V20.1355C33.8462 17.9848 32.8313 17.0074 29.6695 17.0074C28.1316 16.9223 26.6125 17.3789 25.3755 18.2981C25.337 18.335 25.2906 18.3626 25.2399 18.3788C25.1892 18.3951 25.1354 18.3995 25.0827 18.3918C25.03 18.3841 24.9798 18.3645 24.9358 18.3344C24.8918 18.3043 24.8553 18.2646 24.8289 18.2182L23.3848 15.6375C23.3283 15.5595 23.3049 15.4621 23.3199 15.3669C23.3348 15.2716 23.3869 15.1861 23.4646 15.1292C25.4335 13.8116 27.7748 13.1667 30.1394 13.291C35.8775 13.291 37.9854 15.2459 37.9854 19.8606V32.1775C37.9886 32.2296 37.9806 32.2818 37.9621 32.3307C37.9436 32.3795 37.915 32.4239 37.8781 32.4608C37.8413 32.4978 37.797 32.5264 37.7482 32.545C37.6994 32.5635 37.6473 32.5714 37.5953 32.5683L34.3113 32.5707ZM33.843 26.236V24.7894C33.8474 24.7576 33.8443 24.7251 33.8341 24.6947C33.8238 24.6642 33.8067 24.6365 33.7839 24.6138C33.7612 24.5911 33.7335 24.574 33.7031 24.5639C33.6726 24.5537 33.6402 24.5507 33.6084 24.5553H30.4857C27.6749 24.5553 26.4262 25.3369 26.4262 27.0968C26.4262 28.6609 27.5584 29.4433 29.6663 29.4433C32.3598 29.4425 33.843 28.386 33.843 26.2392V26.236Z" fill="#131D34"/>
<path d="M43.548 13.7227H45.4756C45.7998 13.7227 46.1106 13.8517 46.3399 14.0813C46.5691 14.3109 46.6979 14.6223 46.6979 14.9471V31.3456C46.6979 31.6703 46.5691 31.9817 46.3399 32.2114C46.1106 32.441 45.7998 32.57 45.4756 32.57H43.5488C43.2244 32.57 42.9133 32.4409 42.6839 32.2111C42.4545 31.9814 42.3257 31.6697 42.3257 31.3448V14.9471C42.3257 14.6223 42.4545 14.3109 42.6837 14.0813C42.9129 13.8517 43.2238 13.7227 43.548 13.7227Z" fill="#131D34"/>
<path d="M50.2267 30.0287C50.1897 29.9934 50.1603 29.9509 50.1401 29.9038C50.12 29.8568 50.1096 29.8061 50.1096 29.7549C50.1096 29.7037 50.12 29.6531 50.1401 29.606C50.1603 29.559 50.1897 29.5165 50.2267 29.4812L52.4519 27.1347C52.4872 27.0976 52.5296 27.0681 52.5765 27.0479C52.6235 27.0278 52.6741 27.0174 52.7252 27.0174C52.7763 27.0174 52.8269 27.0278 52.8738 27.0479C52.9208 27.0681 52.9632 27.0976 52.9984 27.1347C54.5272 28.4724 56.4744 29.2331 58.5036 29.2854C60.807 29.2854 61.9774 28.3471 61.9774 27.0563C61.9774 25.9222 61.3136 25.2181 58.8546 24.984L56.8249 24.7881C52.9992 24.3973 51.0477 22.4424 51.0477 19.2359C51.0477 15.5995 53.6631 13.2921 58.3472 13.2921C60.8932 13.2499 63.3802 14.0621 65.4121 15.5994C65.4537 15.6298 65.4889 15.6681 65.5155 15.7123C65.5421 15.7564 65.5596 15.8054 65.567 15.8564C65.5745 15.9074 65.5716 15.9593 65.5587 16.0092C65.5458 16.0591 65.5231 16.1059 65.4919 16.1469L63.5771 18.4543C63.5472 18.4964 63.509 18.532 63.465 18.559C63.421 18.586 63.3719 18.6037 63.3209 18.6112C63.2698 18.6187 63.2177 18.6157 63.1678 18.6025C63.1179 18.5892 63.0713 18.566 63.0306 18.5342C61.5767 17.5475 59.8684 17.0043 58.1126 16.9701C56.2393 16.9701 55.2627 17.7909 55.2627 18.925C55.2627 20.02 55.9265 20.6833 58.3464 20.9191L60.3761 21.1149C64.3183 21.5057 66.1924 23.5389 66.1924 26.6295C66.1924 30.3859 63.4598 33.0034 58.3073 33.0034C55.3337 33.0799 52.4432 32.0159 50.2267 30.0287Z" fill="#131D34"/>
<path d="M69.3631 27.7579C68.8968 26.2654 68.6727 24.7076 68.6993 23.144C68.6626 21.5695 68.8735 19.999 69.324 18.4901C70.3779 15.2053 73.2669 13.2896 77.0136 13.2896C80.8784 13.2896 83.6884 15.2876 84.7423 18.4901C85.1716 19.8192 85.3671 21.11 85.3671 24.1598C85.3689 24.215 85.3587 24.27 85.3373 24.3209C85.3158 24.3719 85.2835 24.4175 85.2427 24.4547C85.2018 24.4918 85.1534 24.5197 85.1008 24.5362C85.0481 24.5528 84.9925 24.5577 84.9378 24.5506H73.3443C73.3126 24.5461 73.2802 24.549 73.2498 24.5592C73.2193 24.5693 73.1917 24.5864 73.169 24.6092C73.1463 24.6319 73.1292 24.6596 73.1191 24.6901C73.1089 24.7206 73.106 24.753 73.1106 24.7848C73.121 25.3632 73.2456 25.9338 73.4773 26.4637C73.709 26.9936 74.0431 27.4723 74.4604 27.8721C74.8777 28.272 75.3699 28.5852 75.9086 28.7936C76.4474 29.0019 77.0219 29.1014 77.5992 29.0862C78.4207 29.1248 79.2407 28.9839 80.0024 28.6734C80.7641 28.3629 81.4493 27.8901 82.0105 27.288C82.042 27.242 82.0827 27.2031 82.1301 27.1738C82.1775 27.1446 82.2305 27.1256 82.2857 27.118C82.3408 27.1105 82.3969 27.1146 82.4504 27.1301C82.5039 27.1456 82.5535 27.1722 82.5961 27.208L84.8995 29.2413C84.9431 29.271 84.9793 29.3102 85.0056 29.356C85.0319 29.4018 85.0475 29.4529 85.0512 29.5055C85.055 29.5582 85.0468 29.611 85.0273 29.6601C85.0078 29.7091 84.9775 29.7531 84.9386 29.7887C83.9614 30.855 82.7634 31.6945 81.4283 32.2484C80.0933 32.8023 78.6536 33.0572 77.2099 32.9952C73.227 33 70.417 31.0451 69.3631 27.7579ZM80.7212 19.4316C80.4092 18.7113 79.8938 18.098 79.2384 17.6672C78.583 17.2364 77.8162 17.0069 77.0324 17.0069C76.2485 17.0069 75.4817 17.2364 74.8263 17.6672C74.171 18.098 73.6556 18.7113 73.3435 19.4316C73.1752 19.9488 73.0961 20.491 73.1098 21.0348C73.1052 21.0666 73.1081 21.0991 73.1183 21.1296C73.1284 21.16 73.1455 21.1877 73.1682 21.2105C73.1909 21.2332 73.2185 21.2503 73.249 21.2605C73.2794 21.2706 73.3118 21.2735 73.3435 21.269H80.7212C80.753 21.2735 80.7853 21.2706 80.8158 21.2605C80.8462 21.2503 80.8738 21.2332 80.8965 21.2105C80.9192 21.1877 80.9363 21.16 80.9464 21.1296C80.9566 21.0991 80.9595 21.0666 80.955 21.0348C80.9686 20.491 80.8896 19.9488 80.7212 19.4316Z" fill="#131D34"/>
<path d="M93.0502 32.5707C92.9982 32.5739 92.946 32.5659 92.8973 32.5474C92.8485 32.5289 92.8043 32.5002 92.7674 32.4632C92.7305 32.4263 92.7019 32.382 92.6834 32.3331C92.6649 32.2843 92.6569 32.232 92.6601 32.1799V10.3611C92.6644 10.3293 92.6614 10.2969 92.6512 10.2665C92.641 10.2361 92.6239 10.2085 92.6013 10.1858C92.5786 10.1631 92.5511 10.146 92.5207 10.1358C92.4904 10.1256 92.4581 10.1225 92.4263 10.1269H85.4779C85.4257 10.1301 85.3736 10.1221 85.3248 10.1035C85.2759 10.0849 85.2316 10.0562 85.1947 10.0192C85.1578 9.98214 85.1292 9.93767 85.1108 9.88873C85.0923 9.83979 85.0845 9.7875 85.0878 9.73529V6.37295C85.0847 6.32083 85.0927 6.26866 85.1113 6.21987C85.1298 6.17109 85.1585 6.12678 85.1953 6.08987C85.2322 6.05296 85.2764 6.02427 85.3251 6.0057C85.3738 5.98713 85.4258 5.9791 85.4779 5.98212H104.449C104.501 5.97897 104.553 5.98693 104.602 6.00546C104.651 6.02398 104.695 6.05267 104.732 6.0896C104.769 6.12654 104.797 6.17088 104.816 6.21973C104.834 6.26857 104.842 6.3208 104.839 6.37295V9.73529C104.842 9.7875 104.835 9.83979 104.816 9.88873C104.798 9.93767 104.769 9.98214 104.732 10.0192C104.695 10.0562 104.651 10.0849 104.602 10.1035C104.553 10.1221 104.501 10.1301 104.449 10.1269H97.5006C97.4689 10.1225 97.4366 10.1256 97.4062 10.1358C97.3759 10.146 97.3483 10.1631 97.3257 10.1858C97.303 10.2085 97.2859 10.2361 97.2757 10.2665C97.2655 10.2969 97.2625 10.3293 97.2668 10.3611V32.1799C97.2698 32.232 97.2618 32.2842 97.2433 32.333C97.2248 32.3818 97.1961 32.4261 97.1593 32.463C97.1224 32.4999 97.0782 32.5286 97.0295 32.5471C96.9808 32.5657 96.9287 32.5738 96.8767 32.5707H93.0502Z" fill="#131D34"/>
<path d="M104.045 27.7579C103.579 26.2654 103.355 24.7076 103.382 23.144C103.345 21.5695 103.556 19.999 104.006 18.4901C105.06 15.2053 107.948 13.2896 111.696 13.2896C115.561 13.2896 118.371 15.2876 119.425 18.4901C119.854 19.8192 120.049 21.11 120.049 24.1598C120.051 24.215 120.041 24.27 120.02 24.3209C119.998 24.3719 119.966 24.4175 119.925 24.4547C119.884 24.4918 119.836 24.5197 119.783 24.5362C119.73 24.5528 119.675 24.5577 119.62 24.5506H108.027C107.995 24.5461 107.962 24.5491 107.932 24.5592C107.902 24.5694 107.874 24.5865 107.851 24.6092C107.828 24.6319 107.811 24.6595 107.801 24.69C107.791 24.7205 107.788 24.7529 107.792 24.7848C107.803 25.3632 107.928 25.9337 108.159 26.4636C108.391 26.9934 108.725 27.4721 109.143 27.8719C109.56 28.2718 110.052 28.585 110.591 28.7934C111.13 29.0018 111.704 29.1013 112.282 29.0862C113.103 29.1246 113.923 28.9837 114.684 28.6732C115.446 28.3627 116.131 27.89 116.692 27.288C116.724 27.242 116.764 27.2031 116.812 27.1738C116.859 27.1446 116.912 27.1256 116.967 27.118C117.022 27.1105 117.078 27.1146 117.132 27.1301C117.185 27.1456 117.235 27.1722 117.278 27.208L119.581 29.2413C119.625 29.271 119.661 29.3102 119.687 29.356C119.713 29.4018 119.729 29.4529 119.733 29.5055C119.737 29.5582 119.728 29.611 119.709 29.6601C119.689 29.7091 119.659 29.7531 119.62 29.7887C118.643 30.855 117.445 31.6945 116.11 32.2484C114.775 32.8023 113.335 33.0572 111.891 32.9952C107.909 33 105.096 31.0451 104.045 27.7579ZM115.404 19.4292C115.092 18.7088 114.576 18.0956 113.921 17.6648C113.265 17.234 112.499 17.0045 111.715 17.0045C110.931 17.0045 110.164 17.234 109.509 17.6648C108.853 18.0956 108.338 18.7088 108.026 19.4292C107.857 19.9463 107.778 20.4885 107.791 21.0324C107.787 21.0643 107.79 21.0967 107.8 21.1272C107.81 21.1577 107.828 21.1853 107.85 21.208C107.873 21.2307 107.901 21.2479 107.931 21.258C107.962 21.2682 107.994 21.2711 108.026 21.2666H115.404C115.435 21.2711 115.468 21.2682 115.498 21.2581C115.529 21.2479 115.556 21.2308 115.579 21.2081C115.602 21.1853 115.619 21.1576 115.629 21.1272C115.639 21.0967 115.642 21.0642 115.637 21.0324C115.651 20.4894 115.572 19.9481 115.404 19.4316L115.404 19.4292Z" fill="#131D34"/>
<path d="M123.119 27.8002C122.338 24.7475 122.338 21.5468 123.119 18.4941C124.212 15.1309 127.1 13.2935 130.887 13.2935C132.124 13.2575 133.353 13.5026 134.482 14.0104C135.611 14.5183 136.61 15.2757 137.405 16.2258C137.439 16.2639 137.466 16.3085 137.482 16.357C137.499 16.4054 137.505 16.4568 137.502 16.5079C137.498 16.5591 137.484 16.6089 137.461 16.6545C137.438 16.7001 137.405 16.7405 137.366 16.7733L134.906 18.924C134.867 18.9603 134.821 18.9874 134.77 19.0033C134.72 19.0192 134.666 19.0234 134.614 19.0158C134.561 19.0081 134.511 18.9887 134.467 18.959C134.423 18.9293 134.386 18.89 134.36 18.8441C133.949 18.3169 133.421 17.8937 132.818 17.6084C132.215 17.3231 131.553 17.1838 130.886 17.2017C130.109 17.1556 129.34 17.3738 128.702 17.821C128.065 18.2681 127.597 18.9179 127.375 19.6649C127.061 20.797 126.93 21.9719 126.984 23.1456C126.93 24.331 127.062 25.5177 127.375 26.6621C127.606 27.4007 128.078 28.0405 128.714 28.4798C129.35 28.9191 130.114 29.1325 130.886 29.0862C131.553 29.1041 132.215 28.9648 132.818 28.6795C133.421 28.3942 133.949 27.9709 134.36 27.4438C134.389 27.4002 134.428 27.3638 134.474 27.3375C134.52 27.3112 134.571 27.2956 134.623 27.2918C134.676 27.288 134.729 27.2962 134.778 27.3158C134.827 27.3353 134.87 27.3657 134.906 27.4046L137.366 29.5553C137.561 29.7152 137.525 29.9078 137.405 30.1028C136.602 31.0406 135.6 31.787 134.472 32.2876C133.345 32.7881 132.12 33.0301 130.887 32.996C127.1 33 124.212 31.1626 123.119 27.8002Z" fill="#131D34"/>
<path d="M153.019 32.5709C152.967 32.574 152.915 32.5661 152.866 32.5475C152.817 32.529 152.773 32.5003 152.736 32.4634C152.699 32.4265 152.67 32.3822 152.651 32.3333C152.633 32.2845 152.625 32.2322 152.628 32.18V21.3106C152.628 18.8858 151.417 17.205 149.076 17.205C146.812 17.205 145.485 18.8834 145.485 21.3106V32.18C145.489 32.2322 145.481 32.2844 145.462 32.3333C145.444 32.3821 145.415 32.4265 145.378 32.4634C145.341 32.5003 145.297 32.529 145.248 32.5475C145.2 32.5661 145.147 32.574 145.095 32.5709H141.505C141.453 32.574 141.401 32.5661 141.352 32.5475C141.303 32.529 141.259 32.5003 141.222 32.4634C141.185 32.4265 141.157 32.3821 141.138 32.3333C141.12 32.2844 141.112 32.2322 141.115 32.18V6.37148C141.112 6.31934 141.12 6.26713 141.138 6.21829C141.157 6.16944 141.185 6.12508 141.222 6.08814C141.259 6.0512 141.303 6.02252 141.352 6.00399C141.401 5.98547 141.453 5.9775 141.505 5.98065H145.095C145.147 5.9775 145.2 5.98547 145.248 6.00399C145.297 6.02252 145.341 6.0512 145.378 6.08814C145.415 6.12508 145.444 6.16944 145.462 6.21829C145.481 6.26713 145.489 6.31934 145.485 6.37148V15.4826H145.525C146.344 14.3094 147.984 13.2928 150.482 13.2928C154.502 13.2928 157 16.2643 157 20.2924V32.1793C157.003 32.2314 156.995 32.2836 156.977 32.3325C156.958 32.3813 156.93 32.4257 156.893 32.4626C156.856 32.4996 156.812 32.5282 156.763 32.5467C156.714 32.5653 156.662 32.5732 156.61 32.5701L153.019 32.5709Z" fill="#131D34"/>
<path d="M38.7561 11.2003H50.2898C50.4265 11.2155 50.5648 11.1932 50.6899 11.136C50.815 11.0787 50.9223 10.9886 51.0004 10.8752C51.0786 10.7618 51.1246 10.6293 51.1336 10.4918C51.1426 10.3543 51.1143 10.2169 51.0517 10.0942L45.2849 0.405198C45.2007 0.280418 45.0873 0.178231 44.9545 0.107586C44.8217 0.0369414 44.6737 0 44.5233 0C44.373 0 44.225 0.0369414 44.0922 0.107586C43.9594 0.178231 43.846 0.280418 43.7618 0.405198L37.995 10.0942C37.9324 10.2168 37.9041 10.3541 37.9131 10.4916C37.9221 10.629 37.9681 10.7614 38.0461 10.8748C38.1241 10.9881 38.2313 11.0783 38.3563 11.1356C38.4813 11.1929 38.6195 11.2153 38.7561 11.2003Z" fill="#2BB8D9"/>
</svg>
